<svg version="1.1" id="Layer_1" xmlns="http://www.w3.org/2000/svg" x="0" y="0" viewBox="0 0 2960 461" xml:space="preserve">
  <style>
    .st0{fill:#304ffe}
  </style>
  <path class="st0" d="M921.6 96.7c20.8 0 39.7 3.6 56.9 10.8a130.8 130.8 0 0144 29.4 129.8 129.8 0 0128.2 43.7c6.7 17.2 10 35.5 9.9 53.9 0 8.2-.6 16.4-1.8 24.6-1.2 8-2.4 14.6-3.6 19.8H846.7c5.2 19.2 15.2 33.7 29.9 43.7 14.8 10 32.9 15 54.5 15 15.1.2 30-2.6 44-8.1 13.8-5.6 26.7-13 38.6-21.9l32.9 55.1a199.72 199.72 0 01-54.5 32.6c-19.6 7.8-40.7 11.7-63.5 11.7-23.6 0-45.3-4-65.3-12-19.2-7.5-36.7-18.7-51.5-32.9-14.4-14-25.9-30.7-33.8-49.1-8.2-18.8-12.3-39.1-12.3-61.1s4-42.3 12-61.1c15.5-37.2 45.1-66.7 82.4-82 19.6-8.2 40.5-12.3 61.5-12.1zm-3 65.3c-17.6 0-32.7 5.3-45.5 15.9-12.8 10.6-21.6 25.3-26.4 44h136c-.8-19.2-7.4-33.9-19.8-44.3-12.3-10.4-27.1-15.6-44.3-15.6zM651.1 103.3v172.5c0 17.7-5.4 31.4-16.2 41.6-10.8 10.2-24 15.3-39.5 15.3-16 0-29.4-5.1-40.1-15.3-10.7-10.2-16.1-24.1-16.2-41.6V103.3h-80.3v187.2c0 58.5 40.1 117.1 114.4 117.1 46.9 0 77.8-42.1 77.8-42.1v34.3h80.3V103.3h-80.2zM1255.2 99.7c10 0 18.6 1.2 25.8 3.6v71.3h-21.6c-23.2 0-42.1 6.2-56.9 18.6-14.8 12.4-22.2 31.9-22.2 58.7v147.9h-80.9V103.3h74.3v35.3a98.3 98.3 0 0135.9-29c14.3-6.7 29.9-10 45.6-9.9zM1447.5 96.7c41.9-.2 82.2 15.8 112.6 44.6 14.4 13.9 26 30.5 34.1 48.8 8.4 18.8 12.6 39.1 12.6 61.1.2 21.1-4.1 42.1-12.6 61.4-8 18.5-19.6 35.2-34.1 49.1-63.2 59.8-162 59.8-225.2 0-14.5-13.9-26-30.6-33.8-49.1-8.3-19.4-12.5-40.3-12.3-61.4 0-22 4.1-42.3 12.3-61.1 7.9-18.4 19.4-35 33.8-48.8 14.6-13.9 31.7-25 50.3-32.6 19.2-8 40-12 62.3-12zm0 73.7c-22.8 0-41.2 7.7-55.4 23-14.2 15.3-21.3 34.8-21.3 58.4s7.1 42.8 21.3 57.8c14.2 15 32.6 22.5 55.4 22.5 10.4.1 20.7-2 30.2-6 9.2-3.8 17.4-9.6 24.3-16.8 6.9-7.4 12.4-16 16.2-25.4a83.8 83.8 0 006-32c.1-11.1-2-22-6-32.3a80.9 80.9 0 00-16.2-25.8c-6.9-7.2-15.1-13-24.3-17.1-9.5-4.2-19.8-6.4-30.2-6.3zM434.4 416.5l-61.5-80.2a207.6 207.6 0 0031.1-50.4c11-24.9 16.5-52 16.5-81.2s-5.5-56.2-16.5-81.2a204.6 204.6 0 00-44.9-65 206.97 206.97 0 00-66.5-43.1C267.2 5.2 240 0 210.8 0h-1.2c-29.1 0-56.4 5.2-81.8 15.6-24.7 10-47.3 24.6-66.5 43.1a203 203 0 00-44.9 65C5.5 148.6 0 175.7 0 204.8S5.5 261 16.5 286c10.5 24.3 25.7 46.4 44.6 65 14 13.6 29.9 25.2 47.2 34.2l42.6-63.7c-11.8-5.8-22.6-13.6-31.9-22.9a116.25 116.25 0 01-26.3-41c-6.2-16-9.3-33.5-9.3-52.7 0-19.2 3.1-36.6 9.3-52.4 11.8-30.9 35.9-55.5 66.5-68 15.3-6.4 32.4-9.6 51.2-9.6 18.8 0 35.9 3.2 51.2 9.6 30.6 12.5 54.7 37.1 66.5 68 6.2 15.8 9.3 33.2 9.3 52.4 0 19.2-3.1 36.7-9.3 52.7-5.8 15.4-14.8 29.4-26.4 41-9.3 9.3-20.1 17-31.9 22.9l106.9 139.4 57.7-44.4z"/>
  <circle transform="rotate(-45 209.4 368.08)" cx="209.4" cy="368.1" fill="#ff7e29" r="44.8"/>
  <path class="st0" d="M1783 407.5c-42 0-95.3-7.7-116.8-16.4V15.4h142.5c78.4 0 117.3 38.9 117.3 94.3 0 33.3-20 64-47.7 76.9 46.1 10.8 83 46.6 83 98.4 0 73.8-58.4 122.5-178.3 122.5zm33.3-232.7c43 0 65-27.2 65-60 0-32.3-20-58.4-73.3-58.4h-98.4v118.4h106.7zm-29.2 191.7c95.8 0 129.1-35.4 129.1-82 0-39.5-30.7-71.7-87.1-71.7h-119.4v144.5c17.4 5.6 51.2 9.2 77.4 9.2zM1996.9 260.4c0-83 63-147.1 147.1-147.1 86 0 148.1 64 148.1 147.1 0 84-62.5 147.1-148.1 147.1-84.1 0-147.1-63.1-147.1-147.1zm253.2 0c0-62.5-44-109.2-106.1-109.2-60 0-105.1 46.6-105.1 109.2 0 63 44.6 109.2 105.1 109.2 62-.1 106.1-46.2 106.1-109.2zM2347.5.1h43.6v399.7h-43.6V.1zM2449.8 387v-39.5c15.9 11.8 46.1 22 77.9 22 47.1 0 69.7-21.5 69.7-46.1 0-23-15.4-36.4-45.6-48.2l-35.4-14.3c-38.4-15.4-62-35.4-62-71.2 0-42.5 41-76.4 105.1-76.4 23 0 48.7 6.7 61.5 14.3v39.5c-15.4-9.2-36.9-15.9-61.5-15.9-37.4 0-62 15.4-62 38.4 0 19.5 12.8 28.7 37.9 38.4l34.3 13.8c45.6 18.5 68.7 41 68.7 80.5 0 43.6-36.9 85-110.2 85-33.9.2-63.1-9.1-78.4-20.3zM2922.1 347.5c-23 38.4-62.5 60-109.7 60-79.4 0-138.4-63-138.4-147.1 0-83 59.4-147.1 138.9-147.1 44.6 0 82 20 105.6 54.8v-47.6h41.5v279.3h-37.9v-52.3zm1.5-87.6c0-62-44.6-108.6-105.1-108.6-59.4 0-102.5 46.6-102.5 109.2 0 63 43 109.2 102.5 109.2 60.5-.2 105.1-46.8 105.1-109.8z"/>
</svg>